<?xml version="1.0" standalone="no"?><!DOCTYPE svg PUBLIC "-//W3C//DTD SVG 1.1//EN" "http://www.w3.org/Graphics/SVG/1.1/DTD/svg11.dtd"><svg t="1602755891939" class="icon" viewBox="0 0 1024 1024" version="1.1" xmlns="http://www.w3.org/2000/svg" p-id="1609" xmlns:xlink="http://www.w3.org/1999/xlink" width="200" height="200"><defs><style type="text/css"></style></defs><path d="M510.8 89.2c231.9 0 420.5 188.6 420.5 420.5S742.7 930.2 510.8 930.2 90.3 741.5 90.3 509.7 279 89.2 510.8 89.2m0-87C230.5 2.2 3.3 229.4 3.3 509.7s227.2 507.5 507.5 507.5 507.5-227.2 507.5-507.5S791.1 2.2 510.8 2.2z" fill="#ffffff" p-id="1610"></path><path d="M572.3 509.7l102.5-102.5c17-17 17-44.5 0-61.5-8.5-8.5-19.6-12.7-30.8-12.7s-22.3 4.2-30.8 12.7L510.8 448.2 408.3 345.6c-8.5-8.5-19.6-12.7-30.8-12.7s-22.3 4.2-30.8 12.7c-17 17-17 44.5 0 61.5l102.5 102.5-102.4 102.6c-17 17-17 44.5 0 61.5 8.5 8.5 19.6 12.7 30.8 12.7s22.3-4.2 30.8-12.7l102.5-102.5 102.5 102.5c8.5 8.5 19.6 12.7 30.8 12.7s22.3-4.2 30.8-12.7c17-17 17-44.5 0-61.5L572.3 509.7z" fill="#ffffff" p-id="1611"></path></svg>